<svg xmlns="http://www.w3.org/2000/svg" fill="none" viewBox="0 0 24 24"><path fill="#172b4d" d="M3.25 4a.75.75 0 0 0 1.5 0zm1.5-.01a.75.75 0 0 0-1.5 0zm14.5.01a.75.75 0 0 0 1.5 0zm1.5-.01a.75.75 0 0 0-1.5 0zM3.25 20a.75.75 0 0 0 1.5 0zm1.5-.01a.75.75 0 0 0-1.5 0zm14.5.01a.75.75 0 0 0 1.5 0zm1.5-.01a.75.75 0 0 0-1.5 0zM11.132 5.632l-4.25 2.429.744 1.302 4.25-2.428zM6 9.58v4.84h1.5V9.58zm.882 6.36 4.25 2.428.744-1.303-4.25-2.428zm5.986 2.428 4.25-2.429-.744-1.302-4.25 2.428zM18 14.42V9.58h-1.5v4.84zm-.882-6.36-4.25-2.428-.744 1.303 4.25 2.428zM18 9.58a1.75 1.75 0 0 0-.882-1.52l-.744 1.303a.25.25 0 0 1 .126.217zm-.882 6.36A1.75 1.75 0 0 0 18 14.42h-1.5a.25.25 0 0 1-.126.217zm-5.986 2.428a1.75 1.75 0 0 0 1.736 0l-.744-1.303a.25.25 0 0 1-.248 0zM6 14.42c0 .628.337 1.207.882 1.52l.744-1.303a.25.25 0 0 1-.126-.217zm.882-6.36A1.75 1.75 0 0 0 6 9.58h1.5a.25.25 0 0 1 .126-.217zm4.994-1.125a.25.25 0 0 1 .248 0l.744-1.303a1.75 1.75 0 0 0-1.736 0zm5.002 1.414-5.25 3 .744 1.302 5.25-3zm-4.506 3-5.25-3-.744 1.302 5.25 3zM11.25 12v6h1.5v-6zM3.5 4a.5.5 0 0 1 .5-.5V5a1 1 0 0 0 1-1zm.5-.5a.5.5 0 0 1 .5.5H3a1 1 0 0 0 1 1zm.5.5a.5.5 0 0 1-.5.5V3a1 1 0 0 0-1 1zm-.5.5a.5.5 0 0 1-.5-.5H5a1 1 0 0 0-1-1zm.75-.5v-.01h-1.5V4zM19.5 4a.5.5 0 0 1 .5-.5V5a1 1 0 0 0 1-1zm.5-.5a.5.5 0 0 1 .5.5H19a1 1 0 0 0 1 1zm.5.5a.5.5 0 0 1-.5.5V3a1 1 0 0 0-1 1zm-.5.5a.5.5 0 0 1-.5-.5H21a1 1 0 0 0-1-1zm.75-.5v-.01h-1.5V4zM3.5 20a.5.5 0 0 1 .5-.5V21a1 1 0 0 0 1-1zm.5-.5a.5.5 0 0 1 .5.5H3a1 1 0 0 0 1 1zm.5.5a.5.5 0 0 1-.5.5V19a1 1 0 0 0-1 1zm-.5.5a.5.5 0 0 1-.5-.5H5a1 1 0 0 0-1-1zm.75-.5v-.01h-1.5V20zm14.75 0a.5.5 0 0 1 .5-.5V21a1 1 0 0 0 1-1zm.5-.5a.5.5 0 0 1 .5.5H19a1 1 0 0 0 1 1zm.5.5a.5.5 0 0 1-.5.5V19a1 1 0 0 0-1 1zm-.5.5a.5.5 0 0 1-.5-.5H21a1 1 0 0 0-1-1zm.75-.5v-.01h-1.5V20z"/></svg>