<svg xmlns="http://www.w3.org/2000/svg" fill="none" viewBox="0 0 24 24"><path fill="#172b4d" d="M19.25 3c.966 0 1.75.784 1.75 1.75v2.836c0 .449-.174.878-.482 1.203v.001l-1.957 2.208a.75.75 0 0 1-1.122-.996l1.956-2.207.032-.032a.25.25 0 0 0 .073-.177V4.75a.25.25 0 0 0-.25-.25H4.75a.25.25 0 0 0-.25.25v2.836c0 .066.026.13.073.177l5.414 5.414.117.128c.255.311.396.703.396 1.11v5.848l3-.833V17.5a.75.75 0 0 1 1.5 0V20a.75.75 0 0 1-.549.723l-4.5 1.25A.752.752 0 0 1 9 21.25v-6.836a.25.25 0 0 0-.042-.139l-.031-.038-5.414-5.414A1.75 1.75 0 0 1 3 7.586V4.75C3 3.784 3.784 3 4.75 3zm2 10a.75.75 0 0 1 0 1.5h-6.5a.75.75 0 0 1 0-1.5z"/></svg>