<svg xmlns="http://www.w3.org/2000/svg" fill="none" viewBox="0 0 24 24"><path fill="#172b4d" d="M12 2.253c.729 0 1.428.29 1.944.805l.964.964c2.24-.689 4.875-.152 6.599 1.424l.053.055a.75.75 0 0 1 .022.972l-.051.057-1.715 1.714.103.102.031.034.102.121a3.234 3.234 0 0 1-.26 4.305v.001c-.576.57-1.34.905-2.145.944l-.16.004c-.81 0-1.59-.3-2.19-.838l-.08-.075-1.686 1.688a.75.75 0 0 1-.946.094l-.115-.094c-1.495-1.495-2.073-3.642-1.737-5.642l-6.598 4.27 6.206 7.092H14a.75.75 0 0 1 0 1.5H5a.75.75 0 0 1 0-1.5h3.346l-5.91-6.756a.752.752 0 0 1 .157-1.124l7.822-5.063-.36-.358A2.751 2.751 0 0 1 12 2.253m7.866 3.82c-1.93-1.244-4.744-1.133-6.335.457-1.676 1.675-1.837 4.472-.486 6.364zM16.28 11.78c.328.304.758.475 1.206.475l.174-.008c.404-.04.785-.218 1.076-.506.654-.65.683-1.682.09-2.365l-.07-.072zM12 3.753a1.25 1.25 0 0 0-.884 2.134l.56.56q.342-.524.794-.978.453-.45.98-.783l-.566-.566A1.25 1.25 0 0 0 12 3.753"/></svg>