<svg xmlns="http://www.w3.org/2000/svg" fill="none" viewBox="0 0 24 24"><path fill="#172b4d" d="M20.027 2.25c1.112 0 1.723 1.072 1.723 1.991V19.76c0 .919-.611 1.99-1.723 1.991H3.973c-1.112 0-1.723-1.072-1.723-1.991V4.24c0-.919.611-1.99 1.723-1.991zM3.75 19.759c0 .188.06.332.125.415.031.04.06.06.075.068q.02.01.023.008h16.054q.004.002.023-.008a.3.3 0 0 0 .075-.068.7.7 0 0 0 .125-.415V7.75H3.75zm11.233-9.29a.75.75 0 0 1 1.004-.05l.057.052 2.487 2.5.052.057a.75.75 0 0 1 0 .944l-.052.057-2.487 2.5-.057.052a.75.75 0 0 1-1.007-1.11l1.215-1.221h-8.39l1.215 1.22.05.058a.75.75 0 0 1-1.057 1.053l-.057-.052-2.487-2.5a.75.75 0 0 1 0-1.058l2.487-2.5.057-.052a.75.75 0 0 1 1.007 1.11L7.805 12.75h8.39l-1.215-1.22-.05-.058a.75.75 0 0 1 .053-1.003M3.95 3.758a.3.3 0 0 0-.075.068.7.7 0 0 0-.125.415V6.25h16.5V4.241a.7.7 0 0 0-.125-.415.3.3 0 0 0-.075-.068c-.014-.008-.02-.008-.023-.008H3.973c-.003 0-.01 0-.023.008"/></svg>